<svg width="20" height="17" viewBox="0 0 20 17" fill="none" xmlns="http://www.w3.org/2000/svg">
<path id="Vector" fill-rule="evenodd" clip-rule="evenodd" d="M17.4554 0.143091C17.6769 0.00980075 17.9415 -0.0324739 18.1936 0.02514C18.4457 0.0827538 18.6657 0.235776 18.8074 0.452091L19.7974 1.96209C19.9264 2.15935 19.9816 2.39586 19.9533 2.62988C19.9249 2.86389 19.8148 3.08037 19.6424 3.24109L19.6394 3.24509L19.6254 3.25809L19.5684 3.31109L19.3434 3.52609C18.0983 4.73369 16.8911 5.97962 15.7234 7.26209C13.5264 9.67809 10.9174 12.8401 9.16136 15.9081C8.67136 16.7641 7.47436 16.9481 6.76436 16.2091L0.279362 9.47109C0.186428 9.37449 0.113862 9.2602 0.0659787 9.135C0.0180956 9.0098 -0.00412753 8.87625 0.000630111 8.74229C0.00538775 8.60833 0.0370291 8.47669 0.0936734 8.3552C0.150318 8.23371 0.230809 8.12485 0.330362 8.03509L2.29036 6.26709C2.4626 6.1118 2.68346 6.0212 2.91514 6.01081C3.14682 6.00041 3.3749 6.07086 3.56036 6.21009L6.86936 8.69109C12.0384 3.59409 14.9694 1.63809 17.4554 0.143091Z" fill="#1C3E5C"/>
</svg>
