<svg width="178" height="40" viewBox="0 0 178 40" fill="none" xmlns="http://www.w3.org/2000/svg">
<g id="Group 63246">
<g id="Group 63196">
<path id="Vector" d="M34.9877 30.9118C35.2373 30.5652 35.4868 30.2186 35.7156 29.8581C36.6099 28.4369 37.3101 26.898 37.7815 25.2827C38.1489 24.0557 38.3846 22.794 38.4816 21.5323C38.5302 21.0539 38.551 20.5409 38.551 20.0002C38.551 19.0851 38.4886 18.1839 38.3569 17.3382C38.1212 15.6744 37.6567 14.0591 36.9842 12.5479C36.2563 10.8772 35.265 9.33122 34.0588 7.93088L33.9964 7.86849C33.8785 7.73677 33.7745 7.59119 33.6567 7.46641C31.9929 5.65012 30.0172 4.20124 27.7849 3.17524C25.9617 2.32949 24.0276 1.78876 22.0449 1.57386C20.6376 1.42134 19.3274 1.42134 17.9201 1.57386C15.9513 1.78876 14.031 2.32256 12.2217 3.15445C10.0172 4.16658 8.0553 5.58772 6.39152 7.37629C6.2598 7.51493 6.14888 7.66051 6.0241 7.80609L5.98944 7.84076C4.7416 9.26883 3.72254 10.8564 2.96691 12.5895C2.29446 14.1146 1.83692 15.7229 1.60815 17.359C1.48337 18.2047 1.41405 19.0921 1.41405 20.0141C1.41405 20.5617 1.43484 21.0539 1.48337 21.5323C1.58043 22.8009 1.80919 24.0695 2.18354 25.2966C2.65495 26.898 3.34819 28.4439 4.25634 29.8789C4.48511 30.2394 4.73467 30.586 4.98424 30.9326C6.05876 32.4161 7.34126 33.7333 8.82479 34.8494C9.0605 35.0227 9.30313 35.1822 9.53883 35.3416L9.52497 35.404L9.67055 35.4317C12.7208 37.4768 16.2563 38.5652 19.9652 38.5652C23.674 38.5652 27.2303 37.4699 30.2806 35.4179L30.3499 35.404V35.3763C30.6064 35.203 30.8629 35.0297 31.1194 34.8425C32.603 33.7333 33.8785 32.4092 34.96 30.9187L34.9877 30.9118ZM30.1142 34.9534L19.986 36.8806L9.89238 34.9673C9.64282 34.794 9.38632 34.6345 9.14368 34.4473C7.84039 33.4699 6.68961 32.326 5.70521 31.0505L9.08129 31.6882L9.31006 32.0002L9.37245 32.0834L9.67748 31.7784L17.518 33.2827L19.8404 35.1544L19.8543 35.1822H19.8681L19.9028 35.2238H19.9167L19.9929 35.2723L20.0484 35.3139L20.1662 35.2168L20.1801 35.203L20.2217 35.1753H20.2355L20.2494 35.1544L22.5787 33.2758L30.3985 31.7784L30.7035 32.0903L31.0154 31.6674L34.3083 31.0505C33.3239 32.333 32.1662 33.4699 30.8629 34.4543C30.6203 34.6345 30.3777 34.794 30.1281 34.9673L30.1142 34.9534ZM19.9444 37.3659H19.9929L28.9912 35.6674C26.2667 37.2411 23.2026 38.073 19.9998 38.073C16.7971 38.073 13.7537 37.2411 11.0362 35.6813L19.9513 37.3659H19.9444ZM1.98944 21.4837C1.94784 21.0193 1.92011 20.534 1.92011 20.0071C1.92011 19.3902 1.96171 18.787 2.0241 18.1978L4.94264 18.7524L7.22341 21.8234L6.69654 22.3503L2.27367 21.5115H2.25287L1.99637 21.5877C1.99637 21.5877 1.98944 21.5184 1.98944 21.4837ZM37.9964 21.4976C37.9964 21.4976 37.9894 21.56 37.9894 21.5947L37.7121 21.5115L33.3378 22.3364L32.8248 21.8234L35.1333 18.7246L37.9617 18.1908C38.0241 18.787 38.0657 19.3902 38.0657 20.0141C38.0657 20.5409 38.0449 21.0401 37.9964 21.5045V21.4976ZM30.7104 31.2446L30.6342 31.3486L27.8543 28.5548L27.7919 28.4924L24.9565 25.6501L25.9201 23.9794L25.9409 23.9517L25.3863 21.8096L26.0865 21.6293L32.8387 28.3954L30.7312 31.2238H30.7173V31.2446H30.7104ZM22.3083 32.8598L21.5042 33.5115L26.1766 27.5565L27.3829 28.7697L22.3569 32.8252H22.3014V32.8598H22.3083ZM17.7329 32.8321L12.6931 28.7697L13.8993 27.5635L18.544 33.4837L17.7468 32.839H17.7399L17.7329 32.8321ZM30.9461 11.0921L30.96 11.0782L33.3794 10.8425V12.846L31.8196 14.9465L28.2217 11.3416L30.9323 11.0782L30.9461 11.0921ZM20.0345 29.8373L17.5804 28.9569L16.908 27.7992L20.0345 25.9967L23.161 27.7992L22.4886 28.9569L20.0345 29.8373ZM19.7919 30.2671V33.8512L17.8716 29.5739L19.7919 30.2671ZM20.2771 30.2671L22.1974 29.5739L20.2771 33.8789V30.2671ZM22.8768 29.255L23.8196 27.6189L20.0345 25.4283L16.2425 27.6189L17.1922 29.2619L19.0016 33.2827L14.239 27.2099L15.3621 26.0869L16.0761 27.3278L19.8681 25.1371V23.9794L17.3863 21.9135H22.6896L20.291 23.9032L20.2009 23.9725V25.1302L23.9929 27.3208L24.7139 26.073L25.8369 27.196L21.0952 33.2411L22.8837 29.2411L22.8768 29.255ZM17.518 18.4543C17.518 18.4127 17.5042 18.3503 17.4903 18.3087C17.4487 18.1077 17.3517 17.969 17.213 17.8858C16.9565 17.7333 16.6515 17.8304 16.3742 17.9135C16.2979 17.9343 16.2217 17.9621 16.1524 17.9759C15.7988 18.0383 15.2997 18.1007 14.9877 17.8581C14.5579 17.5323 14.4608 17.1233 14.447 16.8529C15.064 16.9707 16.5891 17.2619 17.518 17.4352L18.0241 17.5323L17.2754 21.8234L16.9773 21.5877L17.518 18.4612V18.4543ZM22.544 17.4352C23.473 17.2619 25.0258 16.9638 25.622 16.8529C25.6082 17.1233 25.5042 17.5323 25.0813 17.8581C24.7693 18.0938 24.2702 18.0383 23.9166 17.9759C23.8543 17.9621 23.7849 17.9413 23.7087 17.9205H23.6879C23.4314 17.8373 23.1125 17.7402 22.856 17.8927C22.7104 17.9759 22.6203 18.1215 22.5718 18.3295C22.5648 18.3642 22.551 18.4196 22.551 18.482L23.0917 21.5877L22.7936 21.8304L22.0449 17.5323L22.544 17.4352ZM23.8127 26.6622L20.6861 24.8598V24.2082L23.6186 21.7749L23.0362 18.4751C23.0362 18.4751 23.0362 18.4473 23.0501 18.4127C23.0501 18.385 23.0709 18.3226 23.0986 18.3018C23.1749 18.2602 23.4175 18.3295 23.5492 18.3711C23.6463 18.3988 23.7433 18.4265 23.8335 18.4473C24.2702 18.5305 24.9149 18.5929 25.3725 18.2394C26.2737 17.56 26.0934 16.5548 26.0865 16.5132L26.0449 16.3191H25.8439C25.8439 16.3191 25.8161 16.3191 21.7121 17.0955L21.4764 17.1371L22.2251 21.4283H17.8231L18.5718 17.1371L18.3361 17.0955C15.6001 16.5779 14.2228 16.3191 14.2043 16.3191H14.0033L13.9686 16.5132C13.9617 16.5548 13.7676 17.5461 14.6827 18.2394C15.1472 18.5929 15.7849 18.5236 16.2286 18.4473C16.3118 18.4335 16.4019 18.4057 16.5059 18.3711C16.6376 18.3295 16.8872 18.2602 16.9565 18.3018C16.9773 18.3156 16.9981 18.3572 17.012 18.4265C17.012 18.4335 17.012 18.4473 17.0189 18.4543L16.4366 21.7749L19.369 24.2082V24.8598L16.2425 26.6622L14.6342 23.8754L15.2581 21.4491L12.8803 20.8321L11.4036 18.2671L14.5094 13.3104L19.9236 14.3711L19.9513 14.3919V14.378H20.0068L20.0206 14.3919L20.09 14.378L20.1038 14.3919L20.1385 14.3711L25.5458 13.3174L28.6515 18.274L27.1749 20.839L24.7901 21.456L25.414 23.8824L23.8057 26.6692L23.8127 26.6622ZM27.778 10.8979L26.3638 9.4768L26.2182 9.33122L21.2199 12.9846L26.2251 6.30869L30.5371 10.6276L27.7919 10.891L27.778 10.8979ZM20.0414 13.3035L18.5024 8.11805L20.0414 6.31563L21.5735 8.11805L20.0345 13.3035H20.0414ZM13.927 9.37282L13.8647 9.33122L12.2979 10.8979L9.5527 10.6345L13.8647 6.31563L18.8699 12.9915L13.927 9.37975V9.37282ZM14.6827 21.7957L14.1281 23.9378L15.1125 25.6432L12.2771 28.4785L9.43484 31.3347L7.23727 28.3815L13.9894 21.6155L14.6827 21.7957ZM16.7208 32.6311L10.1004 31.3624L12.3465 29.1094L16.7208 32.6311ZM27.7364 29.1094L29.9756 31.3624L23.3759 32.6241L27.7364 29.1094ZM29.116 18.0869L25.8785 12.9153L25.7884 12.7766L21.0744 13.6986L26.1697 9.97594L31.9444 15.7645L32.0068 15.8824L32.0484 15.8616L34.6965 18.5167L32.499 21.4699L29.1229 18.0869H29.116ZM20.6584 12.9153L22.5926 6.39881L24.2771 8.08339L20.6584 12.9153ZM19.4175 12.9153L15.7988 8.08339L17.4834 6.39881L19.4175 12.9153ZM6.69654 12.8529V10.8494L9.24074 11.0921L11.8543 11.3416L8.25634 14.9465L6.69654 12.846V12.8529ZM5.38632 18.5167L13.9132 9.97594L19.0085 13.7056L14.2875 12.7836L10.9461 18.1146L7.58389 21.4837L5.38632 18.5236V18.5167ZM5.38632 24.3607L11.0778 18.6622L12.5267 21.1718L12.5752 21.2619L13.4487 21.4907L7.60469 27.3486L5.39325 24.3746L5.38632 24.3607ZM27.3967 21.2827L27.473 21.2619L28.9912 18.6553L33.1506 22.8286V22.8633H33.1784L34.6758 24.3607L33.0397 26.5583H33.005V26.5999L32.4643 27.3347L26.6203 21.4768L27.3898 21.2758L27.3967 21.2827ZM35.0917 18.2394L32.492 15.6328L36.8248 13.4352C37.3239 14.7108 37.6844 16.0418 37.8785 17.4144C37.8924 17.5115 37.8993 17.6085 37.9132 17.7056L35.0848 18.2394H35.0917ZM7.5215 15.6882L4.94958 18.2671L2.07956 17.7264C2.09342 17.6293 2.10036 17.5323 2.11422 17.4352C2.3014 16.0834 2.65495 14.7524 3.16101 13.4768L7.5215 15.6952V15.6882ZM37.109 25.7888L33.7537 26.4335L35.3205 24.326L33.7607 22.7593L37.6913 22.0175L37.9409 22.0938C37.83 23.1198 37.622 24.1527 37.3239 25.1579C37.2615 25.3728 37.1853 25.5808 37.116 25.7957L37.109 25.7888ZM32.2147 15.2376L33.8092 13.0886L33.8577 13.0262V10.3226L31.4799 10.5513L33.7191 8.28443C34.8768 9.64318 35.8335 11.1337 36.5406 12.7558C36.5752 12.8321 36.603 12.9153 36.6376 12.9915L32.2078 15.2376H32.2147ZM30.96 10.3988L26.9045 6.33642L27.9998 3.83382C30.0033 4.82516 31.7919 6.14232 33.3101 7.79916C33.3447 7.83382 33.3725 7.87542 33.4071 7.91701L30.953 10.3988H30.96ZM26.544 5.96901L26.2321 5.65705L26.1628 5.58772L24.5752 7.70904L22.3569 5.4976L21.7399 7.57732L20.2841 5.86502V1.94128C20.8525 1.94821 21.4279 1.98287 22.0172 2.04526C23.9444 2.25323 25.8161 2.77316 27.5839 3.59812L26.551 5.95514L26.544 5.96901ZM19.7919 1.94128V5.85809L18.3291 7.57039L17.7121 5.49067L15.4938 7.70211L13.9617 5.66398L13.8993 5.58079L13.5111 5.96901L12.4643 3.58426C14.2182 2.77316 16.083 2.26017 17.9894 2.05219C18.6064 1.98287 19.1957 1.94821 19.7919 1.94128ZM12.0345 3.79916L13.1506 6.32949L9.15755 10.3295L6.67575 7.81303C6.71041 7.77837 6.73814 7.73677 6.7728 7.70211C8.28407 6.07299 10.0588 4.7697 12.0414 3.79916H12.0345ZM8.70001 10.5513L6.20434 10.3087V13.0123L7.90278 15.3L7.88199 15.3208L3.34126 13.0123C3.37592 12.9361 3.40365 12.8529 3.43831 12.7766C4.16621 11.099 5.15755 9.56693 6.36379 8.18044L8.70694 10.5513H8.70001ZM2.28753 22.0037L6.29446 22.7593L4.79706 24.2567L4.7416 24.3122L6.32219 26.4335L2.89065 25.7888C2.82133 25.5739 2.74507 25.3659 2.68268 25.151C2.37765 24.1458 2.17661 23.1198 2.06569 22.073L2.29446 22.0037H2.28753ZM6.74507 27.0089L7.2442 27.6813L6.64108 28.2844L6.58563 28.3399L8.65148 31.1198L5.2962 30.4889C5.08822 30.1978 4.88025 29.9136 4.68614 29.6155C4.02757 28.5687 3.47991 27.4664 3.0501 26.3156L6.73121 27.0089H6.74507ZM31.4314 31.0851L33.4764 28.3399L32.8179 27.6813L33.3239 27.0019L36.9357 26.3087C36.5128 27.4595 35.9652 28.5617 35.3066 29.6016C35.1194 29.9066 34.9045 30.1839 34.7035 30.4751L31.4314 31.0921V31.0851Z" fill="#FFEAC2"/>
<path id="Vector_2" d="M39.792 17.13C39.5355 15.3414 39.0433 13.6014 38.3154 11.9653C37.442 9.96187 36.2357 8.11785 34.7383 6.4818C32.9428 4.51993 30.8146 2.96707 28.409 1.85095C26.4402 0.935875 24.3605 0.353553 22.2253 0.124783C20.7071 -0.0415945 19.2998 -0.0415945 17.7816 0.124783C15.6603 0.353553 13.5945 0.928943 11.6395 1.83016C9.2617 2.91854 7.14732 4.45061 5.35875 6.38475C3.81283 8.04159 2.57192 9.93414 1.67071 12C0.94974 13.643 0.457539 15.3761 0.207972 17.1438C0.0693241 18.052 0 19.0156 0 20C0 20.5893 0.0277296 21.123 0.0762565 21.636C0.180243 23.0087 0.42981 24.3743 0.831889 25.6984C1.33796 27.4246 2.08666 29.0884 3.07106 30.6343C4.37435 32.7071 6.0312 34.5165 8 35.9931C11.4801 38.6135 15.6326 40 20.0069 40C24.3813 40 28.5477 38.6135 32.0208 35.9861C33.9896 34.5095 35.6465 32.7071 36.9497 30.6204C37.9203 29.0884 38.669 27.4246 39.182 25.6915C39.5841 24.3674 39.8336 23.0017 39.9376 21.6499C39.9861 21.1369 40.0139 20.5823 40.0139 20C40.0139 19.0087 39.9445 18.0451 39.8059 17.13H39.792ZM20 39.5217C15.7366 39.5217 11.6811 38.1698 8.28423 35.6118C6.36395 34.1698 4.74177 32.409 3.47314 30.3847C2.51646 28.8735 1.78163 27.2513 1.28943 25.5667C0.901213 24.2704 0.651647 22.9393 0.554593 21.6014C0.506066 21.1023 0.485269 20.5754 0.485269 20.0069C0.485269 19.0433 0.554593 18.1005 0.686309 17.2201C0.922011 15.4939 1.40728 13.8024 2.10745 12.201C2.98787 10.1837 4.20104 8.33969 5.71231 6.7175C7.45927 4.83189 9.5182 3.33449 11.8406 2.27383C13.747 1.39341 15.7574 0.838821 17.8302 0.610052C18.5789 0.526863 19.286 0.485269 20 0.485269C20.714 0.485269 21.4211 0.526863 22.1698 0.610052C24.2565 0.831889 26.2877 1.40035 28.208 2.29463C30.5581 3.37608 32.6378 4.90121 34.3848 6.80763C35.8475 8.40208 37.026 10.2045 37.8787 12.1594C38.5858 13.7539 39.0711 15.4523 39.3206 17.1993C39.4524 18.0936 39.5217 19.0364 39.5217 20C39.5217 20.5685 39.5009 21.1092 39.4523 21.6083C39.3553 22.9324 39.1057 24.2565 38.7175 25.5529C38.2184 27.2444 37.4905 28.8666 36.5407 30.364C35.2652 32.3951 33.6499 34.156 31.7296 35.5979C28.3328 38.1629 24.2773 39.5147 20.0069 39.5147L20 39.5217Z" fill="#FFEAC2"/>
</g>
<g id="Group 63195">
<g id="Group 63194">
<g id="Group 63192">
<path id="Vector_3" d="M157.612 14.3846L170.078 27.9655V12.478H169.219V25.7801L156.753 12.1992V27.6644H157.612V14.3846Z" fill="#FFEAC2"/>
<path id="Vector_4" d="M143.551 22.9598H148.959L153.185 27.6986L153.23 27.7432H154.389L149.985 22.826C150.509 22.7033 151.011 22.5026 151.468 22.2462C151.992 21.9451 152.46 21.566 152.839 21.12C153.219 20.6629 153.52 20.1388 153.731 19.5813C153.954 19.0015 154.066 18.3882 154.066 17.7527C154.066 17.0391 153.921 16.3589 153.653 15.7345C153.375 15.099 152.996 14.5526 152.527 14.0954C152.07 13.616 151.513 13.2369 150.877 12.9693C150.241 12.7017 149.561 12.5679 148.859 12.5679H142.704V27.7543H143.563V22.9709L143.551 22.9598ZM152.739 19.414C152.527 19.9381 152.226 20.3953 151.847 20.7967C151.479 21.1758 151.033 21.4991 150.52 21.7333C149.996 21.9674 149.439 22.0901 148.859 22.1012H143.563V13.4153H148.859C149.439 13.4264 149.996 13.5491 150.498 13.7832C151.022 14.0174 151.468 14.3407 151.847 14.7422C152.226 15.1213 152.527 15.5784 152.739 16.0913C152.962 16.6154 153.074 17.1729 153.074 17.7527C153.074 18.3325 152.962 18.9011 152.739 19.414Z" fill="#FFEAC2"/>
<path id="Vector_5" d="M59.0005 21.2979L62.3567 27.9099L70.2287 12.3555H69.2809L62.3567 26.0255L59.4911 20.3724L61.8549 15.6782H60.9072L59.0005 19.4246L57.1273 15.6782H56.1572L58.5433 20.3724L55.6666 26.0255L48.7312 12.3555H47.7835L55.6666 27.9099L59.0005 21.2979Z" fill="#FFEAC2"/>
<path id="Vector_6" d="M177.537 26.8831H175.731V13.3914H177.537V12.5552H173.044V13.3914H174.872V26.8831H173.044V27.7416H177.537V26.8831Z" fill="#FFEAC2"/>
<path id="Vector_7" d="M76.7959 26.8831H74.9784V13.3914H76.7959V12.5552H72.2912V13.3914H74.1199V26.8831H72.2912V27.7416H76.7959V26.8831Z" fill="#FFEAC2"/>
<path id="Vector_8" d="M113.569 25.4903C113.971 25.9475 114.45 26.3489 114.974 26.6722C115.509 26.9956 116.111 27.2632 116.747 27.4416C117.394 27.62 118.052 27.7204 118.709 27.7204C119.769 27.7204 120.739 27.5085 121.586 27.0848C122.456 26.6611 123.136 26.0701 123.615 25.3342C123.805 25.0443 123.95 24.721 124.05 24.3753C124.173 24.0297 124.229 23.6617 124.229 23.2714C124.229 23.0038 124.195 22.7363 124.128 22.4686C124.073 22.201 123.995 21.9557 123.883 21.7216L123.615 21.1752V21.2644C123.404 20.9411 123.158 20.6623 122.88 20.4393C122.478 20.1271 122.01 19.8595 121.519 19.67C121.04 19.4581 120.516 19.302 119.981 19.2017C119.456 19.1013 118.932 19.001 118.408 18.9118C117.338 18.7334 116.39 18.4992 115.576 18.2204C114.807 17.9417 114.383 17.3619 114.261 16.4587C114.261 16.3918 114.261 16.3361 114.238 16.3026V16.1131C114.238 15.7897 114.294 15.4775 114.417 15.1876C114.539 14.8866 114.707 14.619 114.918 14.396C115.286 13.9834 115.777 13.6489 116.368 13.4259C116.97 13.1917 117.639 13.0691 118.364 13.0691C119.501 13.0691 120.482 13.3032 121.263 13.7604C122.054 14.2175 122.579 14.8531 122.846 15.6782L122.991 16.0796L123.794 15.8232L123.649 15.4218C123.493 14.92 123.248 14.4629 122.924 14.0614C122.59 13.66 122.188 13.3255 121.731 13.0691C121.285 12.7903 120.772 12.5785 120.204 12.4335C119.646 12.2886 119.022 12.2217 118.353 12.2217C117.516 12.2217 116.736 12.3555 116.022 12.6342C115.32 12.913 114.729 13.3144 114.272 13.8273C114.004 14.1283 113.792 14.4851 113.636 14.8643C113.48 15.2545 113.391 15.6782 113.391 16.1131V16.3472C113.391 16.4253 113.391 16.4922 113.413 16.5702C113.569 17.7856 114.149 18.5884 115.141 18.9564C116.111 19.302 117.16 19.5696 118.252 19.748C119.245 19.9153 120.204 20.1494 121.129 20.4393C122.021 20.7069 122.679 21.2756 123.091 22.123C123.303 22.5578 123.381 23.0262 123.326 23.4945C123.292 23.9739 123.125 24.4422 122.846 24.8994C122.467 25.5126 121.898 26.0032 121.174 26.3489C120.438 26.6945 119.601 26.8729 118.687 26.8729C118.096 26.8729 117.516 26.7949 116.97 26.6276C116.401 26.4827 115.888 26.2597 115.431 25.9921C114.963 25.7022 114.562 25.3677 114.227 24.9774C113.881 24.5983 113.625 24.1746 113.469 23.7175L113.324 23.3161L112.521 23.606L112.666 24.0074C112.867 24.5537 113.168 25.0555 113.558 25.5015L113.569 25.4903Z" fill="#FFEAC2"/>
<path id="Vector_9" d="M89.9642 26.8831H80.6092V12.5552H79.7507V27.7416H89.9642V26.8831Z" fill="#FFEAC2"/>
<path id="Vector_10" d="M128.723 22.9589H137.888L140.263 27.642L140.296 27.72L141.266 27.7535L133.305 12.043L125.444 27.5416L125.344 27.7423H126.292L128.723 22.9589ZM129.146 22.1227L133.294 13.905L137.442 22.1004L129.135 22.1227H129.146Z" fill="#FFEAC2"/>
<path id="Vector_11" d="M102.798 26.8831H93.4426V12.5552H92.584V27.7416H102.798V26.8831Z" fill="#FFEAC2"/>
</g>
</g>
</g>
</g>
</svg>
