<svg width="267" height="158" viewBox="0 0 267 158" fill="none" xmlns="http://www.w3.org/2000/svg">
<path d="M173.605 82.753C174.273 81.825 174.941 80.8971 175.553 79.9321C177.947 76.1276 179.822 72.0076 181.084 67.6835C182.067 64.3986 182.698 61.021 182.958 57.6433C183.088 56.3628 183.144 54.9895 183.144 53.5419C183.144 51.0922 182.977 48.6796 182.624 46.4154C181.993 41.9614 180.75 37.6373 178.95 33.5915C177.001 29.1189 174.347 24.9804 171.118 21.2316L170.951 21.0646C170.635 20.7119 170.357 20.3222 170.041 19.9882C165.587 15.1258 160.298 11.2471 154.322 8.50045C149.442 6.23632 144.264 4.78875 138.956 4.21344C135.189 3.80515 131.681 3.80515 127.914 4.21344C122.643 4.78875 117.502 6.21776 112.659 8.44478C106.757 11.1543 101.505 14.9588 97.0509 19.7469C96.6983 20.1181 96.4014 20.5078 96.0673 20.8975L95.9746 20.9903C92.634 24.8134 89.9059 29.0633 87.8831 33.7029C86.0829 37.7857 84.858 42.0913 84.2456 46.4711C83.9115 48.7353 83.726 51.1107 83.726 53.579C83.726 55.0451 83.7816 56.3628 83.9115 57.6433C84.1714 61.0395 84.7838 64.4357 85.7859 67.7206C87.0479 72.0076 88.9038 76.1461 91.3349 79.9877C91.9474 80.9528 92.6155 81.8807 93.2836 82.8086C96.1601 86.7802 99.5935 90.3063 103.565 93.2942C104.196 93.7581 104.846 94.185 105.477 94.6118L105.439 94.7789L105.829 94.8531C113.995 100.328 123.46 103.242 133.388 103.242C143.317 103.242 152.838 100.309 161.004 94.816L161.189 94.7789V94.7046C161.876 94.2407 162.562 93.7767 163.249 93.2756C167.221 90.3063 170.635 86.7616 173.53 82.7715L173.605 82.753ZM160.558 93.5726L133.444 98.7318L106.423 93.6097C105.755 93.1457 105.068 92.7189 104.419 92.2178C100.93 89.601 97.849 86.5389 95.2137 83.1241L104.252 84.8315L104.864 85.6666L105.031 85.8893L105.848 85.0728L126.837 89.1L133.054 94.1108L133.092 94.185H133.129L133.221 94.2963H133.259L133.463 94.4263L133.611 94.5376L133.927 94.2778L133.964 94.2407L134.075 94.1664H134.112L134.149 94.1108L140.385 89.0814L161.319 85.0728L162.136 85.9079L162.971 84.7758L171.786 83.1241C169.151 86.5575 166.051 89.601 162.562 92.2364C161.913 92.7189 161.263 93.1457 160.595 93.6097L160.558 93.5726ZM133.333 100.031H133.463L157.552 95.4841C150.258 99.6969 142.055 101.924 133.481 101.924C124.907 101.924 116.76 99.6969 109.485 95.5212L133.351 100.031H133.333ZM85.2663 57.5134C85.155 56.27 85.0807 54.9709 85.0807 53.5605C85.0807 51.9088 85.1921 50.2942 85.3591 48.7167L93.1722 50.2014L99.278 58.4228L97.8675 59.8332L86.0272 57.5877H85.9715L85.2849 57.7918C85.2849 57.7918 85.2663 57.6062 85.2663 57.5134ZM181.659 57.5505C181.659 57.5505 181.641 57.7176 181.641 57.8104L180.898 57.5877L169.188 59.7961L167.814 58.4228L173.994 50.1271L181.566 48.6981C181.733 50.2942 181.845 51.9088 181.845 53.579C181.845 54.9895 181.789 56.3257 181.659 57.5691V57.5505ZM162.154 83.6438L161.95 83.9221L154.508 76.4431L154.341 76.276L146.751 68.6671L149.33 64.1945L149.386 64.1202L147.901 58.3857L149.776 57.9031L167.852 76.0162L162.21 83.5881H162.173V83.6438H162.154ZM139.661 87.9679L137.508 89.7124L150.017 73.7707L153.246 77.0184L139.791 87.8751H139.643V87.9679H139.661ZM127.413 87.8937L113.921 77.0184L117.15 73.7892L129.584 89.6382L127.45 87.9122H127.431L127.413 87.8937ZM162.785 29.6942L162.822 29.6571L169.299 29.0261V34.3895L165.123 40.0128L155.492 30.3624L162.748 29.6571L162.785 29.6942ZM133.574 79.8764L127.004 77.5195L125.204 74.4202L133.574 69.595L141.944 74.4202L140.144 77.5195L133.574 79.8764ZM132.925 81.027V90.6218L127.784 79.1712L132.925 81.027ZM134.224 81.027L139.364 79.1712L134.224 90.696V81.027ZM141.183 78.3175L143.707 73.9377L133.574 68.0732L123.423 73.9377L125.965 78.336L130.809 89.1L118.059 72.8427L121.066 69.8363L122.977 73.1582L133.129 67.2937V64.1945L126.485 58.664H140.682L134.261 63.9903L134.019 64.1759V67.2752L144.171 73.1397L146.101 69.7991L149.108 72.8056L136.414 88.9886L141.202 78.2804L141.183 78.3175ZM126.837 49.4034C126.837 49.292 126.8 49.125 126.763 49.0136C126.652 48.4754 126.392 48.1043 126.021 47.8816C125.334 47.4733 124.518 47.7331 123.775 47.9558C123.571 48.0115 123.367 48.0857 123.181 48.1228C122.235 48.2899 120.899 48.4569 120.063 47.8073C118.913 46.9351 118.653 45.8401 118.616 45.1163C120.268 45.4318 124.35 46.2113 126.837 46.6753L128.192 46.9351L126.188 58.4228L125.39 57.7918L126.837 49.4219V49.4034ZM140.292 46.6753C142.779 46.2113 146.936 45.4133 148.532 45.1163C148.495 45.8401 148.217 46.9351 147.085 47.8073C146.25 48.4383 144.913 48.2899 143.967 48.1228C143.8 48.0857 143.614 48.03 143.41 47.9744H143.354C142.668 47.7517 141.814 47.4918 141.127 47.9001C140.738 48.1228 140.496 48.5126 140.366 49.0693C140.348 49.1621 140.311 49.3106 140.311 49.4776L141.758 57.7918L140.96 58.4413L138.956 46.9351L140.292 46.6753ZM143.688 71.3766L135.319 66.5514V64.8069L143.169 58.2929L141.61 49.459C141.61 49.459 141.61 49.3848 141.647 49.292C141.647 49.2178 141.703 49.0507 141.777 48.9951C141.981 48.8837 142.631 49.0693 142.983 49.1807C143.243 49.2549 143.503 49.3291 143.744 49.3848C144.913 49.6075 146.639 49.7745 147.864 48.828C150.277 47.0093 149.794 44.3183 149.776 44.207L149.664 43.6873H149.126C149.126 43.6873 149.052 43.6873 138.065 45.7659L137.434 45.8772L139.439 57.365H127.654L129.658 45.8772L129.027 45.7659C121.703 44.3802 118.016 43.6873 117.966 43.6873H117.428L117.335 44.207C117.317 44.3183 116.797 46.9722 119.247 48.828C120.49 49.7745 122.198 49.5889 123.385 49.3848C123.608 49.3477 123.849 49.2735 124.128 49.1807C124.48 49.0693 125.149 48.8837 125.334 48.9951C125.39 49.0322 125.445 49.1435 125.483 49.3291C125.483 49.3477 125.483 49.3848 125.501 49.4034L123.942 58.2929L131.792 64.8069V66.5514L123.423 71.3766L119.117 63.9161L120.787 57.4206L114.422 55.7689L110.469 48.9023L118.783 35.633L133.277 38.4724L133.351 38.5281V38.491H133.5L133.537 38.5281L133.723 38.491L133.76 38.5281L133.852 38.4724L148.328 35.6515L156.642 48.9208L152.689 55.7875L146.305 57.4392L147.975 63.9347L143.67 71.3952L143.688 71.3766ZM154.304 29.1746L150.518 25.3701L150.128 24.9804L136.748 34.7607L150.147 16.8889L161.69 28.4508L154.341 29.156L154.304 29.1746ZM133.593 35.6144L129.473 21.7327L133.593 16.9074L137.694 21.7327L133.574 35.6144H133.593ZM117.224 25.0917L117.057 24.9804L112.863 29.1746L105.514 28.4694L117.057 16.9074L130.456 34.7793L117.224 25.1103V25.0917ZM119.247 58.3486L117.762 64.0831L120.398 68.6485L112.807 76.2389L105.198 83.885L99.3151 75.9791L117.391 57.866L119.247 58.3486ZM124.703 87.3555L106.98 83.9593L112.993 77.9278L124.703 87.3555ZM154.193 77.9278L160.187 83.9593L142.519 87.3369L154.193 77.9278ZM157.886 48.4198L149.219 34.5751L148.978 34.204L136.358 36.6722L149.998 26.7063L165.458 42.2027L165.625 42.5182L165.736 42.4625L172.825 49.5704L166.942 57.4763L157.904 48.4198H157.886ZM135.244 34.5751L140.422 17.1301L144.932 21.6399L135.244 34.5751ZM131.922 34.5751L122.235 21.6399L126.745 17.1301L131.922 34.5751ZM97.8675 34.4081V29.0447L104.678 29.6942L111.675 30.3624L102.043 40.0128L97.8675 34.3895V34.4081ZM94.36 49.5704L117.187 26.7063L130.827 36.6908L118.189 34.2225L109.244 48.494L100.243 57.5134L94.36 49.5889V49.5704ZM94.36 65.2152L109.596 49.9601L113.475 56.6783L113.605 56.9195L115.943 57.532L100.299 73.2139L94.3785 65.2523L94.36 65.2152ZM153.283 56.9752L153.487 56.9195L157.552 49.9416L168.687 61.1138V61.2066H168.761L172.77 65.2152L168.39 71.0982H168.297V71.2096L166.849 73.1768L151.205 57.4949L153.265 56.9567L153.283 56.9752ZM173.883 48.828L166.924 41.8501L178.523 35.967C179.859 39.3818 180.824 42.945 181.344 46.6196C181.381 46.8794 181.399 47.1392 181.436 47.399L173.865 48.828H173.883ZM100.076 41.9985L93.1908 48.9023L85.5076 47.4547C85.5447 47.1949 85.5632 46.9351 85.6004 46.6753C86.1014 43.0564 87.0479 39.4931 88.4027 36.0784L100.076 42.0171V41.9985ZM179.284 69.0382L170.301 70.7642L174.496 65.1224L170.32 60.9282L180.843 58.9424L181.511 59.1466C181.214 61.8932 180.657 64.6584 179.859 67.3494C179.692 67.9247 179.488 68.4815 179.302 69.0568L179.284 69.0382ZM166.181 40.7922L170.45 35.0391L170.58 34.8721V27.6343L164.214 28.2467L170.209 22.1781C173.308 25.8155 175.869 29.8056 177.762 34.1483C177.855 34.3524 177.929 34.5751 178.022 34.7793L166.163 40.7922H166.181ZM162.822 27.8384L151.966 16.9631L154.898 10.2635C160.261 12.9174 165.049 16.4435 169.114 20.879C169.206 20.9718 169.281 21.0831 169.373 21.1945L162.804 27.8384H162.822ZM151 15.9795L150.165 15.1444L149.98 14.9588L145.73 20.6377L139.791 14.7175L138.139 20.2851L134.242 15.7011V5.19704C135.764 5.2156 137.304 5.30839 138.882 5.47542C144.041 6.03217 149.052 7.42406 153.784 9.63252L151.019 15.9424L151 15.9795ZM132.925 5.19704V15.6826L129.009 20.2665L127.357 14.699L121.418 20.6191L117.317 15.1629L117.15 14.9402L116.111 15.9795L113.308 9.5954C118.003 7.42406 122.996 6.05073 128.099 5.49398C129.751 5.30839 131.328 5.2156 132.925 5.19704ZM112.158 10.1707L115.145 16.9446L104.456 27.6528L97.8118 20.9161C97.9046 20.8233 97.9789 20.7119 98.0717 20.6191C102.117 16.2579 106.868 12.7689 112.176 10.1707H112.158ZM103.231 28.2467L96.5499 27.5971V34.8349L101.097 40.9592L101.041 41.0149L88.8852 34.8349C88.978 34.6308 89.0522 34.4081 89.145 34.204C91.0937 29.7128 93.7475 25.6114 96.9767 21.8997L103.249 28.2467H103.231ZM86.0643 58.9053L96.7911 60.9282L92.7825 64.9368L92.634 65.0853L96.8654 70.7642L87.6789 69.0382C87.4933 68.4629 87.2892 67.9062 87.1222 67.3309C86.3056 64.6399 85.7674 61.8932 85.4705 59.0909L86.0829 58.9053H86.0643ZM97.9974 72.3045L99.3336 74.1047L97.7191 75.7193L97.5706 75.8678L103.101 83.3097L94.1187 81.6209C93.562 80.8414 93.0052 80.0805 92.4856 79.2825C90.7225 76.4802 89.2564 73.5294 88.1058 70.4487L97.9603 72.3045H97.9974ZM164.084 83.2169L169.559 75.8678L167.796 74.1047L169.151 72.286L178.82 70.4301C177.688 73.5108 176.221 76.4616 174.458 79.2454C173.957 80.062 173.382 80.8043 172.844 81.5838L164.084 83.2355V83.2169Z" fill="white"/>
<path d="M186.466 45.858C185.78 41.0699 184.462 36.4118 182.513 32.032C180.175 26.6686 176.946 21.732 172.937 17.3522C168.13 12.1001 162.433 7.94303 155.993 4.95512C150.723 2.5054 145.155 0.946483 139.439 0.334053C135.375 -0.111351 131.607 -0.111351 127.543 0.334053C121.864 0.946483 116.334 2.48684 111.1 4.89944C104.735 7.81312 99.0742 11.9146 94.2861 17.0924C90.1476 21.5278 86.8256 26.5943 84.413 32.1247C82.4829 36.5231 81.1653 41.1627 80.4972 45.8951C80.126 48.3263 79.9404 50.9059 79.9404 53.5412C79.9404 55.1187 80.0147 56.5477 80.1446 57.921C80.423 61.5956 81.0911 65.2516 82.1674 68.7963C83.5222 73.4174 85.5265 77.8714 88.1618 82.01C91.6508 87.559 96.0863 92.4027 101.357 96.3557C110.673 103.371 121.79 107.082 133.5 107.082C145.211 107.082 156.364 103.371 165.662 96.3371C170.933 92.3842 175.368 87.559 178.857 81.9728C181.455 77.8714 183.46 73.4174 184.833 68.7778C185.909 65.2331 186.578 61.5771 186.856 57.9582C186.986 56.5848 187.06 55.1002 187.06 53.5412C187.06 50.8874 186.874 48.3077 186.503 45.858H186.466ZM133.482 105.802C122.068 105.802 111.211 102.183 102.118 95.335C96.9771 91.4748 92.6344 86.7609 89.2382 81.3419C86.6772 77.2961 84.71 72.9534 83.3923 68.4437C82.353 64.9733 81.6849 61.41 81.4251 57.8283C81.2952 56.492 81.2395 55.0816 81.2395 53.5598C81.2395 50.9802 81.4251 48.4562 81.7777 46.0993C82.4087 41.4782 83.7078 36.95 85.5822 32.6629C87.9391 27.2624 91.1869 22.3259 95.2326 17.9832C99.9094 12.9353 105.421 8.92663 111.638 6.08718C116.742 3.73026 122.124 2.24558 127.673 1.63315C129.677 1.41045 131.57 1.29909 133.482 1.29909C135.393 1.29909 137.286 1.41045 139.29 1.63315C144.877 2.22702 150.314 3.74882 155.455 6.14286C161.746 9.03798 167.314 13.1209 171.991 18.2244C175.906 22.4929 179.061 27.3181 181.344 32.5516C183.237 36.82 184.536 41.3669 185.204 46.0436C185.557 48.4377 185.742 50.9616 185.742 53.5412C185.742 55.063 185.687 56.5106 185.557 57.8468C185.297 61.3915 184.629 64.9362 183.59 68.4066C182.253 72.9349 180.305 77.2775 177.762 81.2862C174.347 86.7238 170.023 91.4377 164.883 95.2978C155.789 102.164 144.932 105.783 133.5 105.783L133.482 105.802Z" fill="white"/>
<path d="M226 129.451L251.651 157.397V125.528H249.885V152.9L224.233 124.954V156.778H226V129.451Z" fill="white"/>
<path d="M197.066 147.096H208.194L216.89 156.848L216.982 156.939H219.368L210.305 146.821C211.384 146.569 212.416 146.156 213.357 145.628C214.435 145.008 215.399 144.228 216.179 143.311C216.959 142.37 217.579 141.291 218.014 140.144C218.473 138.951 218.703 137.689 218.703 136.381C218.703 134.913 218.404 133.513 217.854 132.229C217.28 130.921 216.5 129.796 215.536 128.856C214.596 127.869 213.449 127.089 212.141 126.538C210.833 125.988 209.433 125.712 207.988 125.712H195.323V156.962H197.089V147.119L197.066 147.096ZM215.972 139.8C215.536 140.878 214.917 141.819 214.137 142.645C213.38 143.425 212.462 144.091 211.407 144.572C210.328 145.054 209.181 145.307 207.988 145.33H197.089V127.456H207.988C209.181 127.479 210.328 127.731 211.361 128.213C212.439 128.695 213.357 129.361 214.137 130.187C214.917 130.967 215.536 131.907 215.972 132.963C216.431 134.041 216.661 135.188 216.661 136.381C216.661 137.574 216.431 138.745 215.972 139.8Z" fill="white"/>
<path d="M23.0816 143.677L29.9878 157.283L46.1863 125.276H44.2361L29.9878 153.405L24.0912 141.773L28.9553 132.113H27.0051L23.0816 139.822L19.227 132.113H17.2309L22.1409 141.773L16.2213 153.405L1.95012 125.276H-0.00012207L16.2213 157.283L23.0816 143.677Z" fill="white"/>
<path d="M267 155.171H263.283V127.408H267V125.688H257.754V127.408H261.516V155.171H257.754V156.937H267V155.171Z" fill="white"/>
<path d="M59.7003 155.171H55.9604V127.408H59.7003V125.688H50.4309V127.408H54.1937V155.171H50.4309V156.937H59.7003V155.171Z" fill="white"/>
<path d="M135.371 152.303C136.197 153.244 137.184 154.07 138.262 154.736C139.363 155.401 140.602 155.952 141.91 156.319C143.241 156.686 144.595 156.892 145.948 156.892C148.128 156.892 150.124 156.456 151.868 155.584C153.658 154.713 155.057 153.497 156.044 151.982C156.434 151.386 156.732 150.72 156.939 150.009C157.191 149.298 157.306 148.541 157.306 147.738C157.306 147.187 157.237 146.636 157.099 146.086C156.985 145.535 156.824 145.03 156.594 144.548L156.044 143.424V143.608C155.608 142.942 155.103 142.369 154.53 141.91C153.704 141.267 152.74 140.717 151.73 140.327C150.744 139.891 149.665 139.569 148.564 139.363C147.486 139.156 146.407 138.95 145.329 138.766C143.126 138.399 141.176 137.918 139.501 137.344C137.918 136.77 137.046 135.577 136.794 133.719C136.794 133.581 136.794 133.466 136.748 133.398V133.007C136.748 132.342 136.863 131.7 137.115 131.103C137.367 130.484 137.712 129.933 138.147 129.474C138.905 128.625 139.914 127.937 141.13 127.478C142.369 126.996 143.746 126.744 145.237 126.744C147.577 126.744 149.597 127.226 151.203 128.166C152.832 129.107 153.91 130.415 154.461 132.113L154.759 132.939L156.411 132.411L156.113 131.585C155.791 130.552 155.287 129.612 154.621 128.786C153.933 127.96 153.107 127.271 152.166 126.744C151.249 126.17 150.193 125.734 149.023 125.436C147.876 125.138 146.591 125 145.214 125C143.493 125 141.887 125.275 140.419 125.849C138.973 126.423 137.757 127.249 136.817 128.304C136.266 128.923 135.83 129.658 135.509 130.438C135.188 131.241 135.004 132.113 135.004 133.007V133.489C135.004 133.65 135.004 133.788 135.05 133.948C135.371 136.449 136.564 138.101 138.606 138.858C140.602 139.569 142.759 140.12 145.008 140.487C147.05 140.831 149.023 141.313 150.927 141.91C152.763 142.46 154.117 143.631 154.965 145.374C155.401 146.269 155.562 147.233 155.447 148.196C155.378 149.183 155.034 150.147 154.461 151.087C153.681 152.349 152.51 153.359 151.019 154.07C149.505 154.781 147.784 155.149 145.903 155.149C144.687 155.149 143.493 154.988 142.369 154.644C141.199 154.345 140.144 153.887 139.203 153.336C138.239 152.739 137.413 152.051 136.725 151.248C136.014 150.468 135.486 149.596 135.165 148.655L134.866 147.829L133.214 148.426L133.513 149.252C133.926 150.376 134.545 151.409 135.348 152.326L135.371 152.303Z" fill="white"/>
<path d="M86.7974 155.171H67.5473V125.688H65.7806V156.937H86.7974V155.171Z" fill="white"/>
<path d="M166.552 147.095H185.412L190.299 156.731L190.368 156.892L192.364 156.961L175.982 124.632L159.806 156.525L159.6 156.938H161.55L166.552 147.095ZM167.424 145.374L175.959 128.464L184.494 145.328L167.401 145.374H167.424Z" fill="white"/>
<path d="M113.206 155.171H93.9561V125.688H92.1894V156.937H113.206V155.171Z" fill="white"/>
</svg>
