<svg width="248" height="56" viewBox="0 0 248 56" fill="none" xmlns="http://www.w3.org/2000/svg">
<g id="Group 63246">
<g id="Group 63196">
<path id="Vector" d="M49.1769 43.0066C49.5241 42.5243 49.8713 42.0421 50.1896 41.5406C51.4338 39.5634 52.4079 37.4222 53.0637 35.175C53.5749 33.4679 53.9028 31.7125 54.0378 29.9572C54.1054 29.2917 54.1343 28.578 54.1343 27.8257C54.1343 26.5526 54.0475 25.2988 53.8642 24.1221C53.5363 21.8074 52.8901 19.5601 51.9546 17.4576C50.9419 15.1332 49.5627 12.9824 47.8845 11.0342L47.7977 10.9474C47.6337 10.7641 47.4891 10.5616 47.3251 10.388C45.0103 7.86103 42.2616 5.84527 39.156 4.41784C36.6194 3.24118 33.9285 2.48889 31.1701 2.1899C29.2122 1.97772 27.3894 1.97772 25.4315 2.1899C22.6924 2.48889 20.0207 3.23154 17.5035 4.38891C14.4364 5.79704 11.707 7.77422 9.39221 10.2626C9.20896 10.4555 9.05465 10.658 8.88104 10.8605L8.83282 10.9088C7.09676 12.8956 5.67898 15.1042 4.6277 17.5154C3.69216 19.6373 3.0556 21.8749 2.73732 24.151C2.56372 25.3277 2.46727 26.5622 2.46727 27.845C2.46727 28.6069 2.4962 29.2917 2.56372 29.9572C2.69874 31.7222 3.01702 33.4872 3.53784 35.1943C4.19368 37.4222 5.15816 39.573 6.42163 41.5695C6.7399 42.071 7.08711 42.5533 7.43433 43.0355C8.92926 45.0995 10.7135 46.932 12.7775 48.4848C13.1054 48.7259 13.443 48.9477 13.7709 49.1696L13.7516 49.2564L13.9542 49.295C18.1979 52.1402 23.1167 53.6544 28.2767 53.6544C33.4366 53.6544 38.3844 52.1305 42.6281 49.2757L42.7245 49.2564V49.2178C43.0814 48.9767 43.4383 48.7356 43.7951 48.4751C45.8591 46.932 47.6337 45.0898 49.1383 43.0162L49.1769 43.0066ZM42.3966 48.6295L28.3056 51.3107L14.2628 48.6488C13.9156 48.4076 13.5588 48.1858 13.2212 47.9254C11.408 46.5655 9.80694 44.9741 8.43738 43.1995L13.1344 44.0868L13.4527 44.5208L13.5395 44.6365L13.9638 44.2122L24.8721 46.3051L28.1031 48.9092L28.1224 48.9477H28.1416L28.1899 49.0056H28.2092L28.3153 49.0731L28.3924 49.131L28.5564 48.996L28.5757 48.9767L28.6335 48.9381H28.6528L28.6721 48.9092L31.9128 46.2954L42.792 44.2122L43.2164 44.6462L43.6504 44.0578L48.2317 43.1995C46.8621 44.9837 45.2515 46.5655 43.4382 47.935C43.1007 48.1858 42.7631 48.4076 42.4159 48.6488L42.3966 48.6295ZM28.2477 51.9858H28.3153L40.8342 49.6229C37.0438 51.8122 32.7808 52.9696 28.3249 52.9696C23.869 52.9696 19.635 51.8122 15.8542 49.6422L28.2574 51.9858H28.2477ZM3.26779 29.8897C3.20992 29.2435 3.17134 28.5683 3.17134 27.8353C3.17134 26.977 3.22921 26.1379 3.31601 25.3181L7.37646 26.0896L10.5496 30.3623L9.81658 31.0953L3.66322 29.9283H3.63429L3.27743 30.0343C3.27743 30.0343 3.26779 29.9379 3.26779 29.8897ZM53.3627 29.909C53.3627 29.909 53.3531 29.9958 53.3531 30.044L52.9673 29.9283L46.8814 31.076L46.1677 30.3623L49.3794 26.0511L53.3145 25.3084C53.4013 26.1379 53.4592 26.977 53.4592 27.845C53.4592 28.578 53.4302 29.2724 53.3627 29.9186V29.909ZM43.2261 43.4695L43.12 43.6142L39.2524 39.7273L39.1656 39.6405L35.2209 35.6862L36.5615 33.3618L36.5905 33.3232L35.8189 30.343L36.793 30.0922L46.187 39.5055L43.255 43.4406H43.2357V43.4695H43.2261ZM31.5366 45.7167L30.4178 46.6234L36.9184 38.3385L38.5966 40.0263L31.6041 45.6685H31.527V45.7167H31.5366ZM25.1711 45.6782L18.1593 40.0263L19.8375 38.3481L26.2995 46.5848L25.1903 45.6878H25.1807L25.1711 45.6782ZM43.554 15.4322L43.5733 15.4129L46.9393 15.085V17.8723L44.7692 20.7947L39.7636 15.7794L43.5347 15.4129L43.554 15.4322ZM28.3731 41.5116L24.9589 40.2867L24.0233 38.6761L28.3731 36.1684L32.7229 38.6761L31.7874 40.2867L28.3731 41.5116ZM28.0356 42.1096V47.0959L25.364 41.1451L28.0356 42.1096ZM28.7107 42.1096L31.3823 41.1451L28.7107 47.1345V42.1096ZM32.3275 40.7015L33.6392 38.4253L28.3731 35.3776L23.0974 38.4253L24.4188 40.7111L26.936 46.3051L20.3101 37.8563L21.8725 36.2938L22.866 38.0202L28.1416 34.9725V33.3618L24.6888 30.4877H32.0671L28.73 33.2557L28.6046 33.3521V34.9628L33.8803 38.0106L34.8833 36.2745L36.4458 37.837L29.8488 46.2472L32.3371 40.6822L32.3275 40.7015ZM24.8721 25.6749C24.8721 25.617 24.8528 25.5302 24.8335 25.4724C24.7756 25.1927 24.6406 24.9998 24.4477 24.884C24.0908 24.6719 23.6665 24.8069 23.2807 24.9226C23.1746 24.9516 23.0685 24.9901 22.972 25.0094C22.4802 25.0962 21.7857 25.183 21.3517 24.8455C20.7538 24.3922 20.6187 23.8231 20.5994 23.447C21.4578 23.6109 23.5797 24.016 24.8721 24.2571L25.5761 24.3922L24.5345 30.3623L24.1198 30.0343L24.8721 25.6846V25.6749ZM31.8645 24.2571C33.1569 24.016 35.3174 23.6013 36.1468 23.447C36.1275 23.8231 35.9828 24.3922 35.3945 24.8455C34.9605 25.1734 34.2661 25.0962 33.7742 25.0094C33.6874 24.9901 33.5909 24.9612 33.4848 24.9323H33.4559C33.0991 24.8165 32.6554 24.6815 32.2985 24.8937C32.096 25.0094 31.9706 25.212 31.9031 25.5013C31.8935 25.5495 31.8742 25.6267 31.8742 25.7135L32.6265 30.0343L32.2117 30.3719L31.1701 24.3922L31.8645 24.2571ZM33.6295 37.0943L29.2797 34.5867V33.6801L33.3595 30.2948L32.5493 25.7038C32.5493 25.7038 32.5493 25.6653 32.5686 25.617C32.5686 25.5785 32.5975 25.4917 32.6361 25.4627C32.7422 25.4049 33.0798 25.5013 33.263 25.5592C33.398 25.5978 33.5331 25.6363 33.6585 25.6653C34.2661 25.781 35.163 25.8678 35.7996 25.3759C37.0534 24.4307 36.8026 23.0322 36.793 22.9744L36.7351 22.7043H36.4554C36.4554 22.7043 36.4169 22.7043 30.7072 23.7845L30.3792 23.8424L31.4209 29.8125H25.2964L26.3381 23.8424L26.0102 23.7845C22.2037 23.0644 20.2876 22.7043 20.2619 22.7043H19.9822L19.9339 22.9744C19.9243 23.0322 19.6542 24.4114 20.9274 25.3759C21.5736 25.8678 22.4609 25.7714 23.0781 25.6653C23.1939 25.646 23.3193 25.6074 23.4639 25.5592C23.6472 25.5013 23.9944 25.4049 24.0908 25.4627C24.1198 25.482 24.1487 25.5399 24.168 25.6363C24.168 25.646 24.168 25.6653 24.1776 25.6749L23.3675 30.2948L27.4472 33.6801V34.5867L23.0974 37.0943L20.8598 33.2171L21.7279 29.8415L18.4197 28.9831L16.3654 25.4145L20.6862 18.5185L28.2188 19.9941L28.2574 20.0231V20.0038H28.3345L28.3538 20.0231L28.4503 20.0038L28.4696 20.0231L28.5178 19.9941L36.0407 18.5281L40.3616 25.4242L38.3072 28.9927L34.9894 29.8511L35.8575 33.2268L33.6199 37.104L33.6295 37.0943ZM39.1463 15.1621L37.1788 13.1849L36.9763 12.9824L30.0224 18.0652L36.9859 8.77728L42.9849 14.786L39.1656 15.1525L39.1463 15.1621ZM28.3828 18.5089L26.2416 11.2946L28.3828 8.78692L30.5143 11.2946L28.3731 18.5089H28.3828ZM19.8761 13.0403L19.7893 12.9824L17.6096 15.1621L13.7902 14.7956L19.7893 8.78692L26.7528 18.0748L19.8761 13.0499V13.0403ZM20.9274 30.3237L20.1558 33.3039L21.5253 35.6765L17.5806 39.6213L13.6263 43.5949L10.5689 39.4862L19.9629 30.0729L20.9274 30.3237ZM23.7629 45.3985L14.5522 43.6335L17.6771 40.4989L23.7629 45.3985ZM39.0885 40.4989L42.2037 43.6335L33.0219 45.3888L39.0885 40.4989ZM41.0078 25.1637L36.5037 17.9687L36.3783 17.7758L29.8198 19.0586L36.9087 13.8794L44.9428 21.9327L45.0296 22.0967L45.0875 22.0678L48.7718 25.7617L45.7144 29.8704L41.0174 25.1637H41.0078ZM29.2411 17.9687L31.932 8.90266L34.2757 11.2463L29.2411 17.9687ZM27.5147 17.9687L22.4802 11.2463L24.8238 8.90266L27.5147 17.9687ZM9.81658 17.8819V15.0946L13.3562 15.4322L16.9923 15.7794L11.9867 20.7947L9.81658 17.8723V17.8819ZM7.99372 25.7617L19.8568 13.8794L26.9457 19.0682L20.3776 17.7855L15.7288 25.2023L11.0511 29.8897L7.99372 25.7714V25.7617ZM7.99372 33.8923L15.9121 25.9643L17.9278 29.4557L17.9953 29.581L19.2106 29.8993L11.08 38.0492L8.00337 33.9115L7.99372 33.8923ZM38.6159 29.61L38.722 29.581L40.8342 25.9546L46.621 31.7608V31.809H46.6596L48.7429 33.8923L46.4667 36.9496H46.4185V37.0075L45.6662 38.0299L37.5356 29.88L38.6062 29.6003L38.6159 29.61ZM49.3216 25.3759L45.7048 21.7495L51.7327 18.6921C52.4272 20.4667 52.9287 22.3185 53.1988 24.2282C53.218 24.3632 53.2277 24.4983 53.247 24.6333L49.3119 25.3759H49.3216ZM10.9643 21.8266L7.3861 25.4145L3.39317 24.6622C3.41246 24.5272 3.4221 24.3922 3.44139 24.2571C3.7018 22.3764 4.19368 20.5246 4.89775 18.75L10.9643 21.8363V21.8266ZM52.1282 35.8791L47.4601 36.776L49.6398 33.844L47.4698 31.6643L52.9383 30.6323L53.2856 30.7384C53.1312 32.1658 52.8419 33.6029 52.4272 35.0014C52.3404 35.3004 52.2343 35.5897 52.1378 35.8887L52.1282 35.8791ZM45.319 21.1997L47.5373 18.2099L47.6048 18.1231V14.3616L44.2966 14.6799L47.4119 11.526C49.0226 13.4164 50.3535 15.49 51.3373 17.7469C51.3855 17.853 51.4241 17.9687 51.4723 18.0748L45.3093 21.1997H45.319ZM43.5733 14.4677L37.9311 8.81586L39.455 5.3341C42.2423 6.7133 44.7306 8.5458 46.8429 10.8509C46.8911 10.8991 46.9297 10.957 46.9779 11.0149L43.5636 14.4677H43.5733ZM37.4296 8.30468L36.9955 7.87067L36.8991 7.77422L34.6904 10.7255L31.6041 7.64884L30.7457 10.5423L28.7203 8.16001V2.70107C29.5112 2.71072 30.3117 2.75894 31.1315 2.84574C33.8128 3.13509 36.4169 3.85845 38.8763 5.00617L37.4392 8.28539L37.4296 8.30468ZM28.0356 2.70107V8.15037L26.0005 10.5326L25.1421 7.63919L22.0558 10.7159L19.9243 7.88031L19.8375 7.76458L19.2974 8.30468L17.841 4.98688C20.2812 3.85845 22.8756 3.14473 25.5279 2.85539C26.3863 2.75894 27.2061 2.71072 28.0356 2.70107ZM17.2431 5.28587L18.7959 8.80621L13.2405 14.3712L9.78765 10.8702C9.83587 10.822 9.87445 10.7641 9.92268 10.7159C12.0252 8.44936 14.4943 6.63614 17.2527 5.28587H17.2431ZM12.6039 14.6799L9.1318 14.3423V18.1038L11.4948 21.2865L11.4658 21.3155L5.14852 18.1038C5.19674 17.9977 5.23532 17.8819 5.28354 17.7758C6.29624 15.4418 7.67544 13.3103 9.35363 11.3814L12.6136 14.6799H12.6039ZM3.68251 30.613L9.25719 31.6643L7.17392 33.7476L7.09676 33.8247L9.29577 36.776L4.52161 35.8791C4.42516 35.5801 4.31907 35.2907 4.23226 34.9918C3.80789 33.5933 3.52819 32.1658 3.37388 30.7095L3.69216 30.613H3.68251ZM9.8841 37.5766L10.5785 38.5121L9.73943 39.3512L9.66227 39.4284L12.5364 43.2959L7.86834 42.4182C7.579 42.0131 7.28965 41.6177 7.0196 41.203C6.10335 39.7466 5.34141 38.2131 4.74344 36.6121L9.86481 37.5766H9.8841ZM44.2291 43.2477L47.0743 39.4284L46.1581 38.5121L46.8621 37.5669L51.8871 36.6024C51.2987 38.2035 50.5368 39.737 49.6205 41.1837C49.3601 41.6081 49.0611 41.9939 48.7815 42.3989L44.2291 43.2573V43.2477Z" fill="#FFEAC2"/>
<path id="Vector_2" d="M55.8609 23.8322C55.5041 21.3439 54.8193 18.923 53.8066 16.6469C52.5914 13.8595 50.9132 11.294 48.8299 9.01786C46.3319 6.28839 43.371 4.12796 40.0242 2.57515C37.2851 1.30204 34.3917 0.491883 31.4211 0.173606C29.3089 -0.0578686 27.351 -0.0578686 25.2388 0.173606C22.2875 0.491883 19.4134 1.2924 16.6935 2.54622C13.3854 4.06045 10.4437 6.19194 7.95538 8.88283C5.80459 11.1879 4.07818 13.821 2.82436 16.6951C1.8213 18.9809 1.13652 21.3921 0.789313 23.8515C0.596417 25.115 0.499969 26.4556 0.499969 27.8252C0.499969 28.645 0.538549 29.3876 0.606062 30.1013C0.750733 32.011 1.09795 33.911 1.65734 35.7532C2.36141 38.1547 3.40304 40.4694 4.7726 42.6202C6.58582 45.504 8.89092 48.0213 11.63 50.0756C16.4717 53.7214 22.2489 55.6503 28.3348 55.6503C34.4206 55.6503 40.2171 53.7214 45.0492 50.066C47.7883 48.0117 50.0934 45.504 51.9066 42.6009C53.2569 40.4694 54.2985 38.1547 55.0122 35.7435C55.5716 33.9014 55.9188 32.0013 56.0635 30.1206C56.131 29.4069 56.1696 28.6353 56.1696 27.8252C56.1696 26.446 56.0731 25.1053 55.8802 23.8322H55.8609ZM28.3251 54.9848C22.3936 54.9848 16.7514 53.1041 12.0255 49.5452C9.35387 47.5391 7.09699 45.0893 5.332 42.273C4.00102 40.1705 2.97868 37.9136 2.2939 35.5699C1.75379 33.7663 1.40658 31.9145 1.27155 30.0531C1.20404 29.3587 1.1751 28.6257 1.1751 27.8348C1.1751 26.4942 1.27155 25.1825 1.4548 23.9576C1.78272 21.5561 2.45786 19.2027 3.43198 16.9748C4.65687 14.1682 6.3447 11.6027 8.44726 9.34578C10.8777 6.7224 13.7422 4.63913 16.9732 3.16348C19.6255 1.9386 22.4225 1.16702 25.3063 0.84874C26.3479 0.733002 27.3317 0.675134 28.3251 0.675134C29.3185 0.675134 30.3023 0.733002 31.3439 0.84874C34.247 1.15737 37.0729 1.94824 39.7445 3.19242C43.0141 4.697 45.9075 6.81885 48.338 9.47116C50.3731 11.6895 52.0127 14.1971 53.199 16.9169C54.1828 19.1352 54.8579 21.4982 55.2051 23.9287C55.3884 25.1728 55.4848 26.4845 55.4848 27.8252C55.4848 28.616 55.4559 29.3683 55.3884 30.0627C55.2533 31.9049 54.9061 33.747 54.366 35.5506C53.6716 37.9039 52.6589 40.1608 51.3376 42.2441C49.5629 45.07 47.3157 47.5198 44.6441 49.5259C39.9181 53.0944 34.276 54.9752 28.3348 54.9752L28.3251 54.9848Z" fill="#FFEAC2"/>
</g>
<g id="Group 63195">
<g id="Group 63194">
<g id="Group 63192">
<path id="Vector_3" d="M219.779 20.0129L237.122 38.9074V17.3602H235.927V35.8669L218.584 16.9724V38.4885H219.779V20.0129Z" fill="#FFEAC2"/>
<path id="Vector_4" d="M200.217 31.9427H207.741L213.62 38.5356L213.682 38.5976H215.295L209.168 31.7566C209.897 31.5859 210.595 31.3067 211.231 30.9499C211.96 30.531 212.612 30.0036 213.139 29.3831C213.666 28.7471 214.085 28.018 214.38 27.2424C214.69 26.4357 214.845 25.5825 214.845 24.6983C214.845 23.7055 214.644 22.7592 214.271 21.8905C213.884 21.0063 213.356 20.2461 212.705 19.6101C212.069 18.9431 211.293 18.4156 210.409 18.0433C209.525 17.671 208.578 17.4849 207.601 17.4849H199.038V38.6132H200.232V31.9582L200.217 31.9427ZM212.999 27.0097C212.705 27.7388 212.286 28.3748 211.758 28.9332C211.246 29.4607 210.626 29.9105 209.912 30.2363C209.183 30.5621 208.408 30.7327 207.601 30.7482H200.232V18.6638H207.601C208.408 18.6793 209.183 18.85 209.881 19.1757C210.61 19.5015 211.231 19.9514 211.758 20.5098C212.286 21.0373 212.705 21.6733 212.999 22.3869C213.31 23.116 213.465 23.8916 213.465 24.6983C213.465 25.5049 213.31 26.2961 212.999 27.0097Z" fill="#FFEAC2"/>
<path id="Vector_5" d="M82.5849 29.6306L87.2542 38.8297L98.2061 17.1895H96.8876L87.2542 36.208L83.2674 28.3431L86.5561 21.8122H85.2375L82.5849 27.0245L79.9787 21.8122H78.6291L81.9488 28.3431L77.9466 36.208L68.2977 17.1895H66.9791L77.9466 38.8297L82.5849 29.6306Z" fill="#FFEAC2"/>
<path id="Vector_6" d="M247.5 37.4015H244.987V18.6312H247.5V17.4677H241.248V18.6312H243.792V37.4015H241.248V38.596H247.5V37.4015Z" fill="#FFEAC2"/>
<path id="Vector_7" d="M107.343 37.4015H104.814V18.6312H107.343V17.4677H101.076V18.6312H103.62V37.4015H101.076V38.596H107.343V37.4015Z" fill="#FFEAC2"/>
<path id="Vector_8" d="M158.504 35.4637C159.062 36.0997 159.73 36.6581 160.459 37.108C161.203 37.5579 162.041 37.9302 162.925 38.1784C163.825 38.4266 164.74 38.5662 165.655 38.5662C167.129 38.5662 168.479 38.2715 169.658 37.682C170.868 37.0925 171.814 36.2703 172.481 35.2465C172.745 34.8431 172.946 34.3933 173.086 33.9124C173.257 33.4315 173.334 32.9196 173.334 32.3766C173.334 32.0043 173.288 31.632 173.195 31.2597C173.117 30.8874 173.008 30.5461 172.853 30.2204L172.481 29.4602V29.5843C172.186 29.1345 171.845 28.7466 171.457 28.4364C170.899 28.002 170.247 27.6297 169.565 27.366C168.898 27.0713 168.168 26.8541 167.424 26.7145C166.695 26.5749 165.966 26.4353 165.237 26.3112C163.747 26.063 162.429 25.7372 161.296 25.3494C160.226 24.9615 159.636 24.1549 159.466 22.8984C159.466 22.8053 159.466 22.7277 159.435 22.6812V22.4175C159.435 21.9676 159.512 21.5332 159.683 21.1299C159.854 20.7111 160.086 20.3388 160.381 20.0285C160.893 19.4545 161.576 18.9892 162.398 18.6789C163.235 18.3531 164.166 18.1825 165.174 18.1825C166.757 18.1825 168.122 18.5083 169.208 19.1443C170.309 19.7803 171.038 20.6645 171.411 21.8125L171.612 22.3709L172.729 22.0141L172.527 21.4557C172.31 20.7576 171.969 20.1216 171.519 19.5631C171.054 19.0047 170.495 18.5393 169.859 18.1825C169.239 17.7947 168.525 17.4999 167.734 17.2983C166.958 17.0966 166.09 17.0035 165.159 17.0035C163.996 17.0035 162.91 17.1897 161.917 17.5775C160.94 17.9653 160.117 18.5238 159.481 19.2374C159.109 19.6562 158.814 20.1526 158.597 20.68C158.38 21.223 158.256 21.8125 158.256 22.4175V22.7432C158.256 22.8518 158.256 22.9449 158.287 23.0535C158.504 24.7444 159.311 25.8613 160.691 26.3732C162.041 26.8541 163.499 27.2264 165.019 27.4746C166.4 27.7073 167.734 28.0331 169.022 28.4364C170.263 28.8087 171.178 29.5998 171.752 30.7788C172.047 31.3838 172.155 32.0353 172.078 32.6869C172.031 33.3539 171.798 34.0054 171.411 34.6415C170.883 35.4947 170.092 36.1772 169.084 36.6581C168.06 37.139 166.896 37.3872 165.624 37.3872C164.802 37.3872 163.996 37.2786 163.235 37.0459C162.444 36.8443 161.731 36.534 161.095 36.1617C160.443 35.7584 159.885 35.293 159.419 34.7501C158.938 34.2226 158.582 33.6331 158.364 32.9971L158.163 32.4387L157.046 32.842L157.247 33.4005C157.527 34.1606 157.946 34.8586 158.489 35.4792L158.504 35.4637Z" fill="#FFEAC2"/>
<path id="Vector_9" d="M125.663 37.4015H112.648V17.4677H111.454V38.596H125.663V37.4015Z" fill="#FFEAC2"/>
<path id="Vector_10" d="M179.586 31.9419H192.338L195.642 38.4572L195.688 38.5658L197.038 38.6123L185.962 16.7549L175.025 38.3176L174.886 38.5968H176.204L179.586 31.9419ZM180.176 30.7784L185.946 19.3456L191.717 30.7474L180.16 30.7784H180.176Z" fill="#FFEAC2"/>
<path id="Vector_11" d="M143.518 37.4015H130.503V17.4677H129.308V38.596H143.518V37.4015Z" fill="#FFEAC2"/>
</g>
</g>
</g>
</g>
</svg>
