<svg width="25" height="25" viewBox="0 0 25 25" fill="none" xmlns="http://www.w3.org/2000/svg">
<g id="mingcute:youtube-fill" clip-path="url(#clip0_335_5198)">
<g id="Group">
<path id="Vector" fill-rule="evenodd" clip-rule="evenodd" d="M12.5001 4.82513C13.3551 4.82513 14.2321 4.84713 15.0821 4.88313L16.0861 4.93113L17.0471 4.98813L17.9471 5.04913L18.7691 5.11313C19.6611 5.18141 20.5005 5.56208 21.1396 6.18817C21.7787 6.81427 22.1765 7.64567 22.2631 8.53613L22.3031 8.96113L22.3781 9.87113C22.4481 10.8141 22.5001 11.8421 22.5001 12.8251C22.5001 13.8081 22.4481 14.8361 22.3781 15.7791L22.3031 16.6891C22.2901 16.8351 22.2771 16.9761 22.2631 17.1141C22.1765 18.0048 21.7785 18.8363 21.1392 19.4624C20.4999 20.0885 19.6603 20.4691 18.7681 20.5371L17.9481 20.6001L17.0481 20.6621L16.0861 20.7191L15.0821 20.7671C14.2219 20.8045 13.361 20.8239 12.5001 20.8251C11.6391 20.8239 10.7782 20.8045 9.91806 20.7671L8.91406 20.7191L7.95306 20.6621L7.05306 20.6001L6.23106 20.5371C5.33901 20.4689 4.49961 20.0882 3.86053 19.4621C3.22145 18.836 2.82364 18.0046 2.73706 17.1141L2.69706 16.6891L2.62206 15.7791C2.5456 14.7963 2.50491 13.811 2.50006 12.8251C2.50006 11.8421 2.55206 10.8141 2.62206 9.87113L2.69706 8.96113C2.71006 8.81513 2.72306 8.67413 2.73706 8.53613C2.8236 7.64583 3.22128 6.81455 3.86015 6.18848C4.49903 5.56241 5.33819 5.18164 6.23006 5.11313L7.05106 5.04913L7.95106 4.98813L8.91306 4.93113L9.91706 4.88313C10.7776 4.84577 11.6388 4.82643 12.5001 4.82513ZM10.5001 10.4001V15.2501C10.5001 15.7121 11.0001 16.0001 11.4001 15.7701L15.6001 13.3451C15.6915 13.2925 15.7674 13.2168 15.8202 13.1255C15.8729 13.0342 15.9007 12.9306 15.9007 12.8251C15.9007 12.7197 15.8729 12.6161 15.8202 12.5248C15.7674 12.4335 15.6915 12.3577 15.6001 12.3051L11.4001 9.88113C11.3088 9.82846 11.2053 9.80073 11.1 9.80075C10.9946 9.80077 10.8911 9.82852 10.7999 9.88123C10.7087 9.93394 10.6329 10.0097 10.5803 10.101C10.5277 10.1923 10.5 10.2958 10.5001 10.4011V10.4001Z" fill="#1C3E5C"/>
</g>
</g>
<defs>
<clipPath id="clip0_335_5198">
<rect width="24" height="24" fill="white" transform="translate(0.500061 0.825134)"/>
</clipPath>
</defs>
</svg>
